<svg width="234" height="34" viewBox="0 0 234 34" fill="none" xmlns="http://www.w3.org/2000/svg">
<path d="M2.028 6.732C2.028 6.564 2.072 6.432 2.16 6.336C2.256 6.24 2.368 6.188 2.496 6.18H13.98C14.164 6.18 14.3 6.232 14.388 6.336C14.484 6.44 14.532 6.58 14.532 6.756V9.732C14.532 9.868 14.484 10 14.388 10.128C14.292 10.248 14.152 10.308 13.968 10.308H6.672V14.016H12.06C12.212 14.016 12.34 14.06 12.444 14.148C12.548 14.228 12.6 14.36 12.6 14.544V17.412C12.6 17.548 12.552 17.68 12.456 17.808C12.368 17.928 12.244 17.988 12.084 17.988H6.672V23.484C6.672 23.828 6.488 24 6.12 24H2.46C2.172 23.96 2.028 23.792 2.028 23.496V6.732ZM23.3025 6.708C23.3025 6.564 23.3465 6.44 23.4345 6.336C23.5225 6.232 23.6545 6.18 23.8305 6.18H27.3585C27.4785 6.18 27.6065 6.228 27.7425 6.324C27.8785 6.42 27.9465 6.548 27.9465 6.708V23.472C27.9465 23.824 27.7505 24 27.3585 24H23.8305C23.4785 24 23.3025 23.824 23.3025 23.472V6.708ZM37.1492 6.696C37.1492 6.552 37.1972 6.428 37.2932 6.324C37.3892 6.22 37.5212 6.168 37.6892 6.168H41.2412C41.3772 6.168 41.5012 6.216 41.6132 6.312C41.7252 6.408 41.7852 6.536 41.7932 6.696V19.752H48.3932C48.5372 19.752 48.6612 19.8 48.7652 19.896C48.8692 19.992 48.9212 20.124 48.9212 20.292V23.448C48.9212 23.584 48.8732 23.708 48.7772 23.82C48.6892 23.932 48.5612 23.992 48.3932 24H37.6772C37.3252 24 37.1492 23.824 37.1492 23.472V6.696ZM58.4814 6.708C58.4974 6.564 58.5534 6.44 58.6494 6.336C58.7454 6.232 58.8814 6.18 59.0574 6.18H63.2094C63.5054 6.18 63.6974 6.332 63.7854 6.636L67.0494 17.532L70.3374 6.636C70.4494 6.332 70.6534 6.18 70.9494 6.18H75.0534C75.1974 6.18 75.3254 6.232 75.4374 6.336C75.5574 6.432 75.6254 6.556 75.6414 6.708C75.9214 9.524 76.2054 12.32 76.4934 15.096C76.7894 17.864 77.0774 20.656 77.3574 23.472V23.532C77.3574 23.844 77.1814 24 76.8294 24H73.4334C73.0654 24 72.8734 23.824 72.8574 23.472L71.8134 14.196L69.1134 23.532C69.0974 23.612 69.0374 23.708 68.9334 23.82C68.8374 23.932 68.7414 23.988 68.6454 23.988H65.4894C65.3934 23.988 65.2894 23.936 65.1774 23.832C65.0734 23.72 65.0174 23.62 65.0094 23.532L62.3094 14.22L61.2654 23.472C61.2494 23.824 61.0534 24 60.6774 24H57.2814C56.9374 24 56.7654 23.824 56.7654 23.472L58.4814 6.708Z" fill="#E1DEDE"/>
<path d="M90.84 23.748C90.752 23.604 90.672 23.456 90.6 23.304C90.536 23.152 90.472 22.996 90.408 22.836L84.252 6.72C84.252 6.68 84.244 6.644 84.228 6.612C84.22 6.58 84.216 6.548 84.216 6.516C84.216 6.292 84.364 6.18 84.66 6.18H88.524C88.828 6.18 89.036 6.332 89.148 6.636L92.808 17.556C93.136 16.644 93.448 15.736 93.744 14.832C94.048 13.92 94.344 13.008 94.632 12.096C94.928 11.184 95.224 10.276 95.52 9.372C95.824 8.46 96.14 7.548 96.468 6.636C96.58 6.332 96.8 6.18 97.128 6.18H100.908C101.092 6.18 101.22 6.216 101.292 6.288C101.372 6.352 101.412 6.44 101.412 6.552C101.412 6.616 101.408 6.66 101.4 6.684V6.72L95.208 22.836C95.168 22.948 95.12 23.072 95.064 23.208C95.008 23.344 94.944 23.472 94.872 23.592C94.8 23.704 94.716 23.8 94.62 23.88C94.524 23.96 94.416 24 94.296 24H91.332C91.084 24 90.92 23.916 90.84 23.748ZM109.388 6.708C109.388 6.564 109.432 6.44 109.52 6.336C109.608 6.232 109.74 6.18 109.916 6.18H113.444C113.564 6.18 113.692 6.228 113.828 6.324C113.964 6.42 114.032 6.548 114.032 6.708V23.472C114.032 23.824 113.836 24 113.444 24H109.916C109.564 24 109.388 23.824 109.388 23.472V6.708ZM125.899 18.252C126.035 18.364 126.207 18.516 126.415 18.708C126.631 18.892 126.875 19.076 127.147 19.26C127.555 19.532 127.959 19.744 128.359 19.896C128.759 20.048 129.179 20.124 129.619 20.124C130.027 20.124 130.367 20.08 130.639 19.992C130.919 19.896 131.139 19.772 131.299 19.62C131.459 19.468 131.571 19.292 131.635 19.092C131.707 18.892 131.743 18.68 131.743 18.456C131.743 18.208 131.647 17.988 131.455 17.796C131.271 17.596 131.043 17.42 130.771 17.268C130.499 17.116 130.215 16.988 129.919 16.884C129.623 16.772 129.367 16.68 129.151 16.608C128.191 16.272 127.351 15.912 126.631 15.528C125.911 15.136 125.311 14.704 124.831 14.232C124.351 13.752 123.991 13.228 123.751 12.66C123.511 12.084 123.391 11.444 123.391 10.74C123.391 9.996 123.539 9.32 123.835 8.712C124.139 8.104 124.567 7.584 125.119 7.152C125.679 6.72 126.351 6.388 127.135 6.156C127.919 5.916 128.795 5.796 129.763 5.796C130.491 5.796 131.187 5.88 131.851 6.048C132.523 6.208 133.183 6.468 133.831 6.828C134.103 6.988 134.359 7.156 134.599 7.332C134.847 7.5 135.063 7.664 135.247 7.824C135.431 7.984 135.575 8.136 135.679 8.28C135.791 8.424 135.847 8.548 135.847 8.652C135.847 8.756 135.819 8.852 135.763 8.94C135.715 9.028 135.639 9.128 135.535 9.24L133.699 11.196C133.563 11.332 133.427 11.4 133.291 11.4C133.179 11.4 133.075 11.368 132.979 11.304C132.891 11.24 132.791 11.16 132.679 11.064L132.571 10.968C132.411 10.832 132.231 10.692 132.031 10.548C131.839 10.404 131.631 10.276 131.407 10.164C131.183 10.044 130.947 9.948 130.699 9.876C130.451 9.796 130.199 9.756 129.943 9.756C129.679 9.756 129.431 9.78 129.199 9.828C128.967 9.868 128.763 9.936 128.587 10.032C128.411 10.128 128.271 10.256 128.167 10.416C128.063 10.568 128.011 10.756 128.011 10.98C128.011 11.204 128.067 11.4 128.179 11.568C128.291 11.728 128.459 11.88 128.683 12.024C128.907 12.16 129.183 12.292 129.511 12.42C129.847 12.54 130.235 12.672 130.675 12.816C131.523 13.096 132.303 13.392 133.015 13.704C133.735 14.008 134.355 14.372 134.875 14.796C135.395 15.212 135.799 15.712 136.087 16.296C136.383 16.88 136.531 17.588 136.531 18.42C136.531 19.3 136.351 20.1 135.991 20.82C135.631 21.532 135.135 22.14 134.503 22.644C133.879 23.148 133.143 23.54 132.295 23.82C131.447 24.092 130.535 24.228 129.559 24.228C128.639 24.228 127.735 24.064 126.847 23.736C125.959 23.408 125.131 22.968 124.363 22.416C124.043 22.184 123.771 21.956 123.547 21.732C123.331 21.508 123.159 21.328 123.031 21.192L122.995 21.156C122.987 21.14 122.979 21.132 122.971 21.132C122.963 21.124 122.955 21.116 122.947 21.108C122.939 21.092 122.931 21.084 122.923 21.084C122.915 21.076 122.907 21.068 122.899 21.06C122.715 20.86 122.623 20.7 122.623 20.58C122.623 20.444 122.715 20.292 122.899 20.124L124.975 18.144C125.143 18.024 125.279 17.964 125.383 17.964C125.455 17.964 125.531 17.988 125.611 18.036C125.691 18.084 125.787 18.156 125.899 18.252ZM150.265 6.648C150.273 6.6 150.297 6.548 150.337 6.492C150.385 6.436 150.441 6.384 150.505 6.336C150.569 6.288 150.637 6.252 150.709 6.228C150.781 6.196 150.849 6.18 150.913 6.18H153.985C154.121 6.18 154.237 6.224 154.333 6.312C154.429 6.392 154.501 6.464 154.549 6.528L154.849 7.212L161.149 23.46C161.213 23.62 161.201 23.752 161.113 23.856C161.025 23.952 160.873 24 160.657 24H157.213C157.029 24 156.885 23.968 156.781 23.904C156.685 23.832 156.609 23.716 156.553 23.556C156.393 23.148 156.237 22.744 156.085 22.344C155.933 21.936 155.781 21.528 155.629 21.12H149.257C149.105 21.528 148.949 21.936 148.789 22.344C148.637 22.744 148.485 23.148 148.333 23.556C148.229 23.852 148.025 24 147.721 24H144.181C144.029 24 143.901 23.96 143.797 23.88C143.701 23.8 143.685 23.68 143.749 23.52L150.265 6.648ZM152.449 11.784C152.297 12.192 152.141 12.632 151.981 13.104C151.829 13.576 151.677 14.052 151.525 14.532C151.373 15.012 151.217 15.488 151.057 15.96C150.905 16.424 150.753 16.86 150.601 17.268H154.285L152.449 11.784ZM169.324 6.732C169.324 6.564 169.368 6.432 169.456 6.336C169.544 6.232 169.676 6.18 169.852 6.18H177.604C178.428 6.18 179.2 6.336 179.92 6.648C180.64 6.952 181.268 7.368 181.804 7.896C182.34 8.424 182.76 9.044 183.064 9.756C183.376 10.46 183.532 11.212 183.532 12.012C183.532 12.556 183.456 13.076 183.304 13.572C183.16 14.06 182.956 14.52 182.692 14.952C182.428 15.376 182.112 15.764 181.744 16.116C181.384 16.46 180.988 16.756 180.556 17.004L183.64 22.812C183.696 22.924 183.768 23.056 183.856 23.208C183.944 23.36 183.988 23.492 183.988 23.604C183.988 23.732 183.944 23.832 183.856 23.904C183.776 23.968 183.664 24 183.52 24H179.404C179.268 24 179.144 23.96 179.032 23.88C178.928 23.8 178.86 23.692 178.828 23.556L175.912 18.072H173.968V23.484C173.968 23.828 173.784 24 173.416 24H169.852C169.692 24 169.564 23.96 169.468 23.88C169.372 23.792 169.324 23.66 169.324 23.484V6.732ZM178.72 12.06C178.72 11.82 178.676 11.58 178.588 11.34C178.5 11.1 178.376 10.88 178.216 10.68C178.056 10.48 177.864 10.312 177.64 10.176C177.416 10.04 177.168 9.952 176.896 9.912C176.672 9.896 176.46 9.884 176.26 9.876C176.068 9.86 175.856 9.852 175.624 9.852H173.968V14.256H176.176C176.32 14.256 176.448 14.252 176.56 14.244C176.672 14.236 176.796 14.224 176.932 14.208C177.212 14.176 177.464 14.096 177.688 13.968C177.912 13.832 178.1 13.668 178.252 13.476C178.404 13.276 178.52 13.056 178.6 12.816C178.68 12.568 178.72 12.316 178.72 12.06ZM191.983 6.708C191.983 6.564 192.027 6.44 192.115 6.336C192.203 6.232 192.335 6.18 192.511 6.18H196.435C196.547 6.18 196.663 6.208 196.783 6.264C196.903 6.32 197.007 6.416 197.095 6.552C198.111 8.192 199.119 9.808 200.119 11.4C201.119 12.992 202.131 14.608 203.155 16.248V6.636C203.187 6.492 203.251 6.38 203.347 6.3C203.443 6.22 203.555 6.18 203.683 6.18H207.103C207.271 6.18 207.411 6.228 207.523 6.324C207.635 6.412 207.691 6.54 207.691 6.708V23.532C207.691 23.692 207.643 23.812 207.547 23.892C207.451 23.964 207.319 24 207.151 24H203.323C203.219 24 203.127 23.964 203.047 23.892C202.967 23.82 202.883 23.724 202.795 23.604C201.731 21.844 200.679 20.104 199.639 18.384C198.599 16.664 197.543 14.924 196.471 13.164V23.472C196.471 23.648 196.431 23.78 196.351 23.868C196.271 23.956 196.127 24 195.919 24H192.511C192.327 24 192.191 23.952 192.103 23.856C192.023 23.752 191.983 23.628 191.983 23.484V6.708ZM222.459 6.648C222.467 6.6 222.491 6.548 222.531 6.492C222.579 6.436 222.635 6.384 222.699 6.336C222.763 6.288 222.831 6.252 222.903 6.228C222.975 6.196 223.043 6.18 223.107 6.18H226.179C226.315 6.18 226.431 6.224 226.527 6.312C226.623 6.392 226.695 6.464 226.743 6.528L227.043 7.212L233.343 23.46C233.407 23.62 233.395 23.752 233.307 23.856C233.219 23.952 233.067 24 232.851 24H229.407C229.223 24 229.079 23.968 228.975 23.904C228.879 23.832 228.803 23.716 228.747 23.556C228.587 23.148 228.431 22.744 228.279 22.344C228.127 21.936 227.975 21.528 227.823 21.12H221.451C221.299 21.528 221.143 21.936 220.983 22.344C220.831 22.744 220.679 23.148 220.527 23.556C220.423 23.852 220.219 24 219.915 24H216.375C216.223 24 216.095 23.96 215.991 23.88C215.895 23.8 215.879 23.68 215.943 23.52L222.459 6.648ZM224.643 11.784C224.491 12.192 224.335 12.632 224.175 13.104C224.023 13.576 223.871 14.052 223.719 14.532C223.567 15.012 223.411 15.488 223.251 15.96C223.099 16.424 222.947 16.86 222.795 17.268H226.479L224.643 11.784Z" fill="url(#paint0_linear)"/>
<defs>
<linearGradient id="paint0_linear" x1="184" y1="9.4e-06" x2="123" y2="34" gradientUnits="userSpaceOnUse">
<stop stop-color="#8E2A2A"/>
<stop offset="1" stop-color="#E1DEDE"/>
</linearGradient>
</defs>
</svg>
