<svg width="47" height="47" viewBox="0 0 47 47" fill="none" xmlns="http://www.w3.org/2000/svg">
<path d="M29.375 36.6706L17.625 32.5982V9.6501L29.375 13.7225V36.6706ZM40.1458 5.79004C40.0283 5.79004 39.9304 5.79004 39.8325 5.79004L29.375 9.84311L17.625 5.79004L6.58 9.4571C6.16875 9.5922 5.875 9.93961 5.875 10.3835V39.5656C5.875 39.8215 5.97816 40.067 6.16179 40.248C6.34542 40.429 6.59448 40.5306 6.85417 40.5306C6.95208 40.5306 7.06958 40.5306 7.1675 40.4727L17.625 36.4776L29.375 40.5306L40.42 36.8636C40.8312 36.6706 41.125 36.3811 41.125 35.9372V6.75506C41.125 6.49912 41.0218 6.25366 40.8382 6.07269C40.6546 5.89171 40.4055 5.79004 40.1458 5.79004Z" fill="#F9F7F7"/>
</svg>
