<svg width="60" height="58" viewBox="0 0 60 58" fill="none" xmlns="http://www.w3.org/2000/svg">
<path d="M45 9.56616L50 19.1324H42.5L37.5 9.56616H32.5L37.5 19.1324H30L25 9.56616H20L25 19.1324H17.5L12.5 9.56616H10C8.67392 9.56616 7.40215 10.0701 6.46447 10.9671C5.52678 11.8641 5 13.0807 5 14.3493V43.048C5 44.3166 5.52678 45.5332 6.46447 46.4302C7.40215 47.3272 8.67392 47.8312 10 47.8312H50C51.3261 47.8312 52.5979 47.3272 53.5355 46.4302C54.4732 45.5332 55 44.3166 55 43.048V9.56616H45Z" fill="#F9F7F7"/>
</svg>
