<svg width="58" height="57" viewBox="0 0 58 57" fill="none" xmlns="http://www.w3.org/2000/svg">
<path d="M31.4166 19.9717H26.5833V15.2724H31.4166V19.9717ZM31.4166 30.5449H26.5833V25.8457H31.4166V30.5449ZM31.4166 41.1181H26.5833V36.4189H31.4166V41.1181ZM53.1666 23.4961V14.0976C53.1666 11.4896 50.9916 9.39844 48.3332 9.39844H9.66658C8.38471 9.39844 7.15533 9.89353 6.2489 10.7748C5.34248 11.6561 4.83325 12.8513 4.83325 14.0976V23.4961C7.51575 23.4961 9.66658 25.6107 9.66658 28.1953C9.66658 29.4416 9.15736 30.6368 8.25093 31.5181C7.34451 32.3994 6.11513 32.8945 4.83325 32.8945V42.2929C4.83325 43.5392 5.34248 44.7345 6.2489 45.6157C7.15533 46.497 8.38471 46.9921 9.66658 46.9921H48.3332C49.6151 46.9921 50.8445 46.497 51.7509 45.6157C52.6574 44.7345 53.1666 43.5392 53.1666 42.2929V32.8945C51.8847 32.8945 50.6553 32.3994 49.7489 31.5181C48.8425 30.6368 48.3332 29.4416 48.3332 28.1953C48.3332 26.949 48.8425 25.7537 49.7489 24.8724C50.6553 23.9912 51.8847 23.4961 53.1666 23.4961Z" fill="#F9F7F7"/>
</svg>
