<svg width="33" height="33" viewBox="0 0 33 33" fill="none" xmlns="http://www.w3.org/2000/svg">
<path d="M16.4999 0.833374C18.5774 0.833374 20.5699 1.65867 22.0389 3.1277C23.508 4.59674 24.3333 6.58918 24.3333 8.66671C24.3333 10.7442 23.508 12.7367 22.0389 14.2057C20.5699 15.6747 18.5774 16.5 16.4999 16.5C14.4224 16.5 12.4299 15.6747 10.9609 14.2057C9.49188 12.7367 8.66658 10.7442 8.66658 8.66671C8.66658 6.58918 9.49188 4.59674 10.9609 3.1277C12.4299 1.65867 14.4224 0.833374 16.4999 0.833374ZM16.4999 20.4167C25.1558 20.4167 32.1666 23.9221 32.1666 28.25V32.1667H0.833252V28.25C0.833252 23.9221 7.84408 20.4167 16.4999 20.4167Z" fill="#F9F7F7"/>
</svg>
